# xmcd CD database file
#
# Track frame offsets:
#	150
#	14215
#	24504
#	37946
#	48756
#	59365
#	73073
#	85481
#	100015
#	109514
#	123222
#	136419
#	147507
#	159924
#	172688
#	185533
#	199371
#	213255
#	225833
#
# Disc length: 3153 seconds
#
# Revision: 0
# Processed by: cddbd v1.5.2PL0 Copyright (c) Steve Scherf et al.
# Submitted via: CDex 1.51
#
DISCID=fb0c4f13
DTITLE=DEAN MARTIN - THE VERY BEST OF CD-1
DYEAR=2011
DGENRE=Jazz
TTITLE0=THAT S AMORE - DEAN MARTIN
TTITLE1=MEMORIES ARE MADE THIS - DEAN MARTIN
TTITLE2=VOLARE - DEAN MARTIN
TTITLE3=RETURN TO ME - DEAN MARTIN
TTITLE4=BUONA SERA - DEAN MARTIN
TTITLE5=GEORGIA ON MY MIND - DEAN MARTIN
TTITLE6=STRRET OF LOVE (RUE DE MON AMOUR) - DEAN MARTIN
TTITLE7=COME BACK TO SORRENTO - DEAN MARTIN
TTITLE8=THE MAGICIAN - DEAN MARTIN
TTITLE9=WHEN YOU RE SMILING - DEAN MARTIN
TTITLE10=PROMISE HER ANYTHING - DEAN MARTIN
TTITLE11=I M GONNA STEL YOU AWAY - DEAN MARTIN
TTITLE12=ANGEL BABY - DEAN MARTIN
TTITLE13=ALL I HAVE TO GIVE TO YOU - DEAN MARTIN
TTITLE14=SIMPATICO - DEAN MARTIN
TTITLE15=BYE BYE BLICKBIRD - DEAN MARTIN
TTITLE16=MUSKRAT RAMBLE - DEAN MARTIN
TTITLE17=UNDER THE BRIDGES OF PARIS - DEAN MARTIN
TTITLE18=SOMEDAY YOU LL WANT ME TO WANT YOU - DEAN MARTIN
EXTD=YEAR: 2011
EXTT0=
EXTT1=
EXTT2=
EXTT3=
EXTT4=
EXTT5=
EXTT6=
EXTT7=
EXTT8=
EXTT9=
EXTT10=
EXTT11=
EXTT12=
EXTT13=
EXTT14=
EXTT15=
EXTT16=
EXTT17=
EXTT18=
PLAYORDER=
